<?xml version='1.0' encoding='utf-8'?>
<svg xmlns="http://www.w3.org/2000/svg" viewBox="0 0 437.5 437.5"> <path d="m192.76 6.7333-54.301 16.126v12.461l36.068 2.5655c7.5308 9.8956 16.251 31.886 27.745 65.604-13.873 25.655-30.123 43.98-46.374 54.242l-17.043-19.424c-15.854 3.6648-25.367 14.294-25.367 26.022 0 12.828 12.683 23.823 28.141 23.823 22.592 0 43.599-21.99 69.363-65.604 11.098 46.912 22.989 67.436 53.508 67.436 12.287 0 29.33-3.665 52.319-10.262v-14.294c-7.9272 1.8325-15.062 2.5656-21.8 2.5656-26.556 0-32.105-24.189-48.752-77.332 13.872-26.755 28.934-43.247 43.996-49.478l15.458 19.425c16.251-4.398 25.367-15.027 25.367-27.854 0-13.561-10.305-23.456-24.97-23.456-22.592 0-44.788 21.257-68.966 63.038-12.287-44.713-19.422-65.604-41.618-65.604h-2.7744z" fill="#004d00"/> <path d="m21.805 251.11h388.26v-49.236h-388.26v49.236z" fill="#0f0" fill-rule="evenodd" stroke="#000" stroke-width="6.25"/> <path d="m228.62 408.14c-5.4501 8.0468-12.036 13.755-19.756 17.125s-18.11 5.0551-31.167 5.0551c-5.5636 0-11.752-0.3783-18.564-1.1349s-14.25-1.8568-22.311-3.3013v-22.902l19.245 0.1032c0.3407 5.2957 2.3844 9.2161 6.1314 11.761 3.8604 2.5447 9.5943 3.8171 17.202 3.8171 7.3803 0 13.341-1.2379 17.883-3.714 4.5417-2.4071 9.0834-7.0151 13.625-13.824l2.725-3.817-78.855-111.11h-19.586v-12.483h104.4v12.483h-21.63l45.985 64.89 42.919-64.89h-24.014v-12.483h67.955v12.483h-21.97l-80.218 121.94z" fill="#004c00"/> </svg>